<svg xmlns="http://www.w3.org/2000/svg" viewBox="0 0 123.45 18.76"><defs><style>.cls-1{fill:#fff;}.cls-2{fill:#e4e6f2;}</style></defs><title>taostaff</title><g id="Layer_2" data-name="Layer 2"><g id="Layer_7" data-name="Layer 7"><path class="cls-1" d="M9.25,18.52H4.39V4.5H0v-4H13.63v4H9.25Z"/><path class="cls-1" d="M26.61,18.52l-.88-3.37H19.88L19,18.52H13.63L19.5.45H26l5.94,18.07Zm-1.89-7.36-.78-2.95q-.27-1-.66-2.55c-.25-1-.42-1.79-.51-2.24-.07.42-.22,1.11-.43,2.07s-.7,2.85-1.45,5.67Z"/><path class="cls-1" d="M50.08,9.5c0,3-.75,5.33-2.23,6.9s-3.66,2.36-6.52,2.36a8.52,8.52,0,0,1-6.49-2.37Q32.57,14,32.58,9.47t2.24-6.86Q37.07.26,41.35.25T47.86,2.6Q50.08,4.94,50.08,9.5ZM37.7,9.5q0,5.22,3.63,5.22a3.11,3.11,0,0,0,2.73-1.27A6.9,6.9,0,0,0,45,9.5a6.92,6.92,0,0,0-.91-4,3.07,3.07,0,0,0-2.7-1.29Q37.71,4.23,37.7,9.5Z"/><path class="cls-2" d="M65.78,12.79a5.29,5.29,0,0,1-.85,3,5.56,5.56,0,0,1-2.44,2,9.11,9.11,0,0,1-3.76.72,15,15,0,0,1-3-.25,11.31,11.31,0,0,1-2.54-.88V13a13.9,13.9,0,0,0,2.89,1.11,10.69,10.69,0,0,0,2.76.4,2.7,2.7,0,0,0,1.59-.37,1.16,1.16,0,0,0,.5-1,1.08,1.08,0,0,0-.2-.64,2.34,2.34,0,0,0-.65-.56,25.65,25.65,0,0,0-2.4-1.16A11.21,11.21,0,0,1,55,9.29a4.68,4.68,0,0,1-1.31-1.72,5.79,5.79,0,0,1-.42-2.3,4.63,4.63,0,0,1,1.8-3.88,8,8,0,0,1,5-1.39,13.92,13.92,0,0,1,5.69,1.29L64.29,5a10.76,10.76,0,0,0-4.35-1.15,2.3,2.3,0,0,0-1.38.33,1,1,0,0,0-.43.82,1.18,1.18,0,0,0,.55,1,20.2,20.2,0,0,0,3,1.53,8.22,8.22,0,0,1,3.23,2.24A4.91,4.91,0,0,1,65.78,12.79Z"/><path class="cls-2" d="M75.87,18.25H71v-14H66.62v-4H80.25v4H75.87Z"/><path class="cls-2" d="M93.23,18.25l-.89-3.37H86.5l-.91,3.37H80.25L86.12.18H92.6l5.94,18.07Zm-1.9-7.36-.77-2.95q-.27-1-.66-2.55c-.26-1-.43-1.79-.51-2.24-.07.42-.22,1.11-.44,2.07s-.7,2.85-1.44,5.67Z"/><path class="cls-2" d="M104.65,18.25H99.86V.26h10.63v3.9h-5.84V7.59H110v3.9h-5.39Z"/><path class="cls-2" d="M117.6,18.25h-4.79V.26h10.64v3.9H117.6V7.59H123v3.9H117.6Z"/></g></g></svg>